<svg data-name="Layer 1" xmlns="http://www.w3.org/2000/svg"
width="800px" height="800px"
viewBox="0 0 1024 1024"
xml:space="preserve">

    <defs>
        <radialGradient id="a" cx="5128.71" cy="6740.61" r="390.03" gradientTransform="matrix(0 -1.98 -1.84 0 12746.16 11115.08)" gradientUnits="userSpaceOnUse">
            <stop offset="0" stop-color="#fd5"/>
            <stop offset=".1" stop-color="#fd5"/>
            <stop offset=".5" stop-color="#ff543e"/>
            <stop offset="1" stop-color="#c837ab"/>
        </radialGradient>
        <radialGradient id="b" cx="-3409.03" cy="5072.11" r="390.03" gradientTransform="matrix(.17 .87 3.58 -.72 -17595.11 6765.3)" gradientUnits="userSpaceOnUse">
            <stop offset="0" stop-color="#3771c8"/>
            <stop offset=".13" stop-color="#3771c8"/>
            <stop offset="1" stop-color="#60f" stop-opacity="0"/>
        </radialGradient>
    </defs>
    <path d="M500.13 110c-162.87 0-210.5.17-219.76.94-33.42 2.78-54.22 8-76.88 19.32a155.7 155.7 0 0 0-44.82 32.81q-37.13 38.54-45.18 94.93c-2.64 18.24-3.41 22-3.57 115.14-.06 31.06 0 71.93 0 126.76 0 162.73.18 210.31 1 219.56 2.7 32.52 7.8 53 18.6 75.36 20.64 42.84 60.07 75 106.51 87 16.08 4.14 33.84 6.42 56.65 7.5 9.66.42 108.13.72 206.65.72s197.06-.12 206.48-.6c26.4-1.24 41.73-3.3 58.69-7.68A163.34 163.34 0 0 0 871 794.53c10.59-21.84 16-43.08 18.4-73.91.52-6.72.75-113.87.75-220.88s-.24-214-.77-220.69c-2.46-31.33-7.83-52.39-18.77-74.65a154.7 154.7 0 0 0-33.39-45.75c-25.81-24.65-57.37-39.65-95-45.07-18.22-2.64-21.85-3.42-115.1-3.58Z" style="fill:url(#a)"/>
    <path d="M500.13 110c-162.87 0-210.5.17-219.76.94-33.42 2.78-54.22 8-76.88 19.32a155.7 155.7 0 0 0-44.82 32.81q-37.13 38.54-45.18 94.93c-2.64 18.24-3.41 22-3.57 115.14-.06 31.06 0 71.93 0 126.76 0 162.73.18 210.31 1 219.56 2.7 32.52 7.8 53 18.6 75.36 20.64 42.84 60.07 75 106.51 87 16.08 4.14 33.84 6.42 56.65 7.5 9.66.42 108.13.72 206.65.72s197.06-.12 206.48-.6c26.4-1.24 41.73-3.3 58.69-7.68A163.34 163.34 0 0 0 871 794.53c10.59-21.84 16-43.08 18.4-73.91.52-6.72.75-113.87.75-220.88s-.24-214-.77-220.69c-2.46-31.33-7.83-52.39-18.77-74.65a154.7 154.7 0 0 0-33.39-45.75c-25.81-24.65-57.37-39.65-95-45.07-18.22-2.64-21.85-3.42-115.1-3.58Z" style="fill:url(#b)"/>
    <path d="M500 212c-78.23 0-88 .34-118.76 1.74s-51.6 6.26-69.91 13.38A147.35 147.35 0 0 0 227 311.36c-7.14 18.32-12 39.25-13.38 69.91S211.9 421.81 211.9 500s.35 88 1.74 118.73 6.26 51.6 13.38 69.91a147.45 147.45 0 0 0 84.22 84.27c18.33 7.12 39.26 12 69.92 13.38s40.53 1.74 118.75 1.74 88-.35 118.74-1.74 51.62-6.26 69.94-13.38a147.6 147.6 0 0 0 84.23-84.26c7.08-18.32 11.94-39.26 13.38-69.91s1.74-40.51 1.74-118.74-.36-88-1.74-118.76-6.3-51.59-13.38-69.9a147.3 147.3 0 0 0-84.25-84.24c-18.36-7.12-39.3-12-70-13.38S578.1 212 499.86 212Zm-25.84 51.9H500c76.9 0 86 .28 116.38 1.66 28.09 1.28 43.33 6 53.48 9.92a95.4 95.4 0 0 1 54.65 54.66c3.94 10.14 8.64 25.39 9.92 53.47 1.38 30.36 1.68 39.48 1.68 116.35s-.3 86-1.68 116.35c-1.28 28.08-6 43.32-9.92 53.46a95.47 95.47 0 0 1-54.65 54.63c-10.14 4-25.39 8.64-53.48 9.92C586 735.71 576.85 736 500 736s-86-.3-116.39-1.68c-28.08-1.29-43.32-6-53.48-9.93a95.46 95.46 0 0 1-54.68-54.64c-3.94-10.14-8.64-25.39-9.92-53.47-1.38-30.36-1.65-39.48-1.65-116.4s.27-86 1.65-116.34c1.29-28.09 6-43.33 9.92-53.48a95.53 95.53 0 0 1 54.68-54.68c10.15-4 25.4-8.64 53.48-9.93 26.57-1.2 36.87-1.56 90.55-1.62Zm179.58 47.83a34.56 34.56 0 1 0 34.56 34.55 34.55 34.55 0 0 0-34.56-34.55M500 352.12A147.9 147.9 0 1 0 647.84 500 147.91 147.91 0 0 0 500 352.12m0 51.88a96 96 0 1 1-96 96 96 96 0 0 1 96-96" style="fill:#fff"/>
</svg>
