<svg xmlns="http://www.w3.org/2000/svg"
    width="800px" height="800px"
    viewBox="0 0 1024 1024"
xml:space="preserve">

  <!-- Dış yuvarlatılmış arka plan -->
    <rect
        x="150.0"
        y="150.0"
        width="723.8"
        height="723.8"
        rx="200"
        ry="200"
        fill="#020202"
    />

    <path d="M628.1 431.8c31.7 22.6 70.5 36 112.4 36v-80.6c-7.9 0-15.8-.8-23.6-2.5v63.5c-41.9 0-80.7-13.3-112.4-36v164.5c0 82.3-66.8 149-149.1 149-30.7 0-59.3-9.3-83-25.2 27.1 27.7 64.8 44.8 106.6 44.8 82.4 0 149.1-66.7 149.1-149zm29.1-81.4c-16.2-17.7-26.8-40.5-29.1-65.8v-10.4h-22.4c5.7 32.2 24.9 59.6 51.5 76.2m-232.7 287c-9-11.9-13.9-26.4-13.9-41.3 0-37.6 30.5-68.2 68.2-68.2 7 0 14 1.1 20.7 3.2v-82.4c-7.8-1.1-15.7-1.5-23.6-1.4v64.2c-6.7-2.1-13.7-3.2-20.7-3.2-37.7 0-68.2 30.5-68.2 68.2 0 26.6 15.2 49.6 37.5 60.9"
        fill="#ee2353"/>

    <path d="M604.5 412.2c31.7 22.6 70.5 36 112.4 36v-63.5c-23.4-5-44.1-17.2-59.7-34.2-26.7-16.6-45.9-44.1-51.5-76.2H547v322c-.1 37.5-30.6 67.9-68.2 67.9-22.2 0-41.8-10.6-54.3-26.9-22.3-11.2-37.5-34.3-37.5-60.9 0-37.6 30.5-68.2 68.2-68.2 7.2 0 14.2 1.1 20.7 3.2v-64.2c-80.9 1.7-146 67.7-146 149 0 40.6 16.2 77.3 42.5 104.2 23.7 15.9 52.3 25.2 83 25.2 82.3 0 149.1-66.7 149.1-149z"
        fill="#ffffff"/>

    <path d="M716.9 384.6v-17.2c-21.1 0-41.8-5.9-59.7-17 15.9 17.4 36.8 29.3 59.7 34.2M605.8 274.3c-.5-3.1-1-6.2-1.2-9.3v-10.4h-81.1v322c-.1 37.5-30.6 67.9-68.2 67.9-11 0-21.5-2.6-30.7-7.3 12.5 16.3 32.1 26.9 54.3 26.9 37.6 0 68.1-30.4 68.2-67.9v-322h58.7zm-129.9 173V429c-6.8-.9-13.6-1.4-20.5-1.4-82.4 0-149.1 66.7-149.1 149 0 51.6 26.2 97.1 66.1 123.8-26.3-26.9-42.5-63.6-42.5-104.2 0-81.1 65.1-147.2 146-148.9"
        fill="#6bcad0"/>

</svg>
