<svg data-name="Layer 1" xmlns="http://www.w3.org/2000/svg"
width="800px" height="800px"
viewBox="0 0 1024 1024"
class="icon" xml:space="preserve">

    <defs>
        <linearGradient id="a" x1="1629.59" y1="8144.82" x2="1629.59" y2="8541.35" gradientTransform="matrix(2.04 0 0 -2.04 -2825.66 17521.7)" gradientUnits="userSpaceOnUse">
            <stop offset="0" stop-color="#20b038"/>
            <stop offset="1" stop-color="#60d66a"/>
        </linearGradient>
    </defs>
    <path d="M799.1 199.23C719.74 119.81 614.2 76.05 501.77 76 270.07 76 81.52 264.49 81.42 496.18a419.54 419.54 0 0 0 56.11 210.08L77.89 924l222.83-58.43a420 420 0 0 0 200.87 51.15h.18c231.66 0 420.24-188.52 420.34-420.2 0-112.28-43.65-217.86-123-297.29ZM501.77 845.75h-.14a348.85 348.85 0 0 1-177.82-48.69l-12.76-7.56-132.23 34.67 35.3-128.88-8.32-13.21a348.37 348.37 0 0 1-53.41-185.87C152.47 303.64 309.19 147 501.9 147a349.38 349.38 0 0 1 349.23 349.49c-.08 192.58-156.8 349.26-349.36 349.26" style="fill:#e0e0e0"/>
    <path d="M97.19 899.84 154.1 692a400.24 400.24 0 0 1-53.55-200.47c.09-221.1 180-401 401.13-401 107.3 0 208 41.81 283.74 117.61s117.43 176.6 117.38 283.74c-.09 221.11-180 401-401.11 401h-.18a400.94 400.94 0 0 1-191.67-48.8z" style="fill:url(#a)"/>
    <path d="M397.9 317.79c-7.78-17.29-16-17.63-23.37-17.93-6-.26-13-.25-19.89-.25s-18.18 2.6-27.69 13-36.34 35.51-36.34 86.59S327.82 499.63 333 506.56s71.83 115.1 177.36 156.71c87.7 34.59 105.55 27.71 124.58 26s61.43-25.11 70.08-49.36 8.65-45 6.06-49.36-9.52-6.92-19.9-12.11-61.43-30.31-70.95-33.77-16.44-5.2-23.36 5.2-26.81 33.74-32.87 40.66-12.11 7.81-22.49 2.62S497.68 577 458 541.62c-30.87-27.52-51.7-61.5-57.76-71.9s-.65-16 4.56-21.18c4.66-4.65 10.38-12.12 15.57-18.18s6.91-10.39 10.38-17.31 1.73-13-.87-18.19-22.77-56.54-32-77.07Z" style="fill:#fff;fill-rule:evenodd"/>
    <path d="M795.67 197.9C717.22 119.39 612.89 76.13 501.75 76.08c-229 0-415.43 186.33-415.52 415.36a414.54 414.54 0 0 0 55.46 207.66L82.74 914.34 303 856.58a415.24 415.24 0 0 0 198.56 50.57h.18c229 0 415.41-186.36 415.51-415.38 0-111-43.14-215.36-121.59-293.87ZM501.75 837h-.14a345.1 345.1 0 0 1-175.78-48.13l-12.61-7.48-130.72 34.27 34.9-127.4-8.22-13.06a344.33 344.33 0 0 1-52.8-183.74c.08-190.35 155-345.22 345.5-345.22A345.36 345.36 0 0 1 847.1 491.75C847 682.11 692.09 837 501.75 837" style="fill:#fff"/>
</svg>
